<?xml version="1.0" encoding="UTF-8"?>
<svg width="700pt" height="700pt" version="1.1" viewBox="0 0 700 700" xmlns="http://www.w3.org/2000/svg">
 <g>
  <path d="m350 50.91c-60.758 0-119.03 24.137-161.99 67.098-42.961 42.965-67.098 101.23-67.098 161.99s24.137 119.03 67.098 161.99c42.965 42.961 101.23 67.098 161.99 67.098s119.03-24.137 161.99-67.098c42.961-42.965 67.098-101.23 67.098-161.99s-24.137-119.03-67.098-161.99c-42.965-42.961-101.23-67.098-161.99-67.098zm0 407.27c-47.258 0-92.578-18.773-125.99-52.191-33.418-33.414-52.191-78.734-52.191-125.99s18.773-92.578 52.191-125.99c33.414-33.418 78.734-52.191 125.99-52.191s92.578 18.773 125.99 52.191c33.418 33.414 52.191 78.734 52.191 125.99 0 31.277-8.2344 62.004-23.875 89.09-15.637 27.09-38.129 49.582-65.219 65.219-27.086 15.641-57.812 23.875-89.09 23.875z"/>
  <path d="m465.82 258.87-152.73-101.82c-3.8672-2.2344-8.2578-3.4102-12.727-3.4102s-8.8555 1.1758-12.727 3.4102c-8.0898 4.0547-13.422 12.098-14 21.129v203.64-0.003906c0.011719 4.6055 1.2734 9.1211 3.6484 13.066 2.375 3.9453 5.7773 7.1719 9.8438 9.3359 3.9805 2.043 8.4258 3 12.895 2.7773 4.4727-0.22266 8.8008-1.6211 12.559-4.0508l152.73-101.82c7.0352-4.7305 11.258-12.652 11.258-21.129s-4.2227-16.398-11.258-21.129zm-141.27 76.363 0.003906-109.45 81.453 54.219z"/>
 </g>
</svg>
